<mxfile host="app.diagrams.net" agent="Mozilla/5.0 (Windows NT 10.0; Win64; x64) AppleWebKit/537.36 (KHTML, like Gecko) Chrome/131.0.0.0 Safari/537.36" version="25.0.3">
  <diagram name="Страница — 1" id="mBidPUgmacfbIquzoBTX">
    <mxGraphModel dx="4489" dy="928" grid="1" gridSize="10" guides="1" tooltips="1" connect="1" arrows="1" fold="1" page="1" pageScale="1" pageWidth="2339" pageHeight="3300" math="0" shadow="0">
      <root>
        <mxCell id="0" />
        <mxCell id="1" parent="0" />
        <mxCell id="8hipFg5tHZ6pabTX7cXC-1" value="Модель оценивая системы/ПП" style="rounded=0;whiteSpace=wrap;html=1;" vertex="1" parent="1">
          <mxGeometry x="480" y="40" width="230" height="60" as="geometry" />
        </mxCell>
        <mxCell id="8hipFg5tHZ6pabTX7cXC-2" value="Функциональная пригодность" style="rounded=0;whiteSpace=wrap;html=1;" vertex="1" parent="1">
          <mxGeometry y="120" width="230" height="60" as="geometry" />
        </mxCell>
        <mxCell id="8hipFg5tHZ6pabTX7cXC-3" value="Полнота" style="rounded=0;whiteSpace=wrap;html=1;" vertex="1" parent="1">
          <mxGeometry x="-290" y="240" width="230" height="60" as="geometry" />
        </mxCell>
        <mxCell id="8hipFg5tHZ6pabTX7cXC-4" value="Защищенность" style="rounded=0;whiteSpace=wrap;html=1;" vertex="1" parent="1">
          <mxGeometry x="500" y="150" width="230" height="60" as="geometry" />
        </mxCell>
        <mxCell id="8hipFg5tHZ6pabTX7cXC-5" value="Целесообразность" style="rounded=0;whiteSpace=wrap;html=1;" vertex="1" parent="1">
          <mxGeometry x="-10" y="240" width="230" height="60" as="geometry" />
        </mxCell>
        <mxCell id="8hipFg5tHZ6pabTX7cXC-6" value="Надежность" style="rounded=0;whiteSpace=wrap;html=1;" vertex="1" parent="1">
          <mxGeometry x="860" y="140" width="230" height="60" as="geometry" />
        </mxCell>
        <mxCell id="8hipFg5tHZ6pabTX7cXC-7" value="Конфиденциальность" style="rounded=0;whiteSpace=wrap;html=1;" vertex="1" parent="1">
          <mxGeometry x="500" y="240" width="230" height="60" as="geometry" />
        </mxCell>
        <mxCell id="8hipFg5tHZ6pabTX7cXC-9" value="Отказоустойчивость" style="rounded=0;whiteSpace=wrap;html=1;" vertex="1" parent="1">
          <mxGeometry x="860" y="240" width="230" height="60" as="geometry" />
        </mxCell>
        <mxCell id="8hipFg5tHZ6pabTX7cXC-10" value="Объекты исследования" style="rounded=0;whiteSpace=wrap;html=1;" vertex="1" parent="1">
          <mxGeometry x="480" y="360" width="230" height="60" as="geometry" />
        </mxCell>
        <mxCell id="8hipFg5tHZ6pabTX7cXC-11" value="Администратор" style="rounded=0;whiteSpace=wrap;html=1;" vertex="1" parent="1">
          <mxGeometry x="60" y="470" width="230" height="60" as="geometry" />
        </mxCell>
        <mxCell id="8hipFg5tHZ6pabTX7cXC-12" value="Оператор" style="rounded=0;whiteSpace=wrap;html=1;" vertex="1" parent="1">
          <mxGeometry x="480" y="460" width="230" height="60" as="geometry" />
        </mxCell>
        <mxCell id="8hipFg5tHZ6pabTX7cXC-13" value="Пользователь" style="rounded=0;whiteSpace=wrap;html=1;" vertex="1" parent="1">
          <mxGeometry x="910" y="460" width="230" height="60" as="geometry" />
        </mxCell>
        <mxCell id="8hipFg5tHZ6pabTX7cXC-14" value="" style="endArrow=classic;html=1;rounded=0;exitX=0;exitY=0.5;exitDx=0;exitDy=0;entryX=0.5;entryY=0;entryDx=0;entryDy=0;" edge="1" parent="1" source="8hipFg5tHZ6pabTX7cXC-1" target="8hipFg5tHZ6pabTX7cXC-2">
          <mxGeometry width="50" height="50" relative="1" as="geometry">
            <mxPoint x="520" y="340" as="sourcePoint" />
            <mxPoint x="199" y="150" as="targetPoint" />
          </mxGeometry>
        </mxCell>
        <mxCell id="8hipFg5tHZ6pabTX7cXC-15" value="" style="endArrow=classic;html=1;rounded=0;exitX=0.59;exitY=1.056;exitDx=0;exitDy=0;entryX=0.5;entryY=0;entryDx=0;entryDy=0;exitPerimeter=0;" edge="1" parent="1" source="8hipFg5tHZ6pabTX7cXC-1" target="8hipFg5tHZ6pabTX7cXC-4">
          <mxGeometry width="50" height="50" relative="1" as="geometry">
            <mxPoint x="520" y="340" as="sourcePoint" />
            <mxPoint x="570" y="290" as="targetPoint" />
          </mxGeometry>
        </mxCell>
        <mxCell id="8hipFg5tHZ6pabTX7cXC-16" value="" style="endArrow=classic;html=1;rounded=0;exitX=1;exitY=0.5;exitDx=0;exitDy=0;entryX=0.106;entryY=0.013;entryDx=0;entryDy=0;entryPerimeter=0;" edge="1" parent="1" source="8hipFg5tHZ6pabTX7cXC-1" target="8hipFg5tHZ6pabTX7cXC-6">
          <mxGeometry width="50" height="50" relative="1" as="geometry">
            <mxPoint x="520" y="340" as="sourcePoint" />
            <mxPoint x="570" y="290" as="targetPoint" />
          </mxGeometry>
        </mxCell>
        <mxCell id="8hipFg5tHZ6pabTX7cXC-22" value="" style="endArrow=classic;html=1;rounded=0;entryX=0.5;entryY=0;entryDx=0;entryDy=0;" edge="1" parent="1" target="8hipFg5tHZ6pabTX7cXC-10">
          <mxGeometry width="50" height="50" relative="1" as="geometry">
            <mxPoint x="595" y="300" as="sourcePoint" />
            <mxPoint x="520" y="420" as="targetPoint" />
          </mxGeometry>
        </mxCell>
        <mxCell id="8hipFg5tHZ6pabTX7cXC-26" value="" style="endArrow=classic;html=1;rounded=0;exitX=0;exitY=1;exitDx=0;exitDy=0;" edge="1" parent="1" source="8hipFg5tHZ6pabTX7cXC-10">
          <mxGeometry width="50" height="50" relative="1" as="geometry">
            <mxPoint x="390" y="540" as="sourcePoint" />
            <mxPoint x="270" y="470" as="targetPoint" />
          </mxGeometry>
        </mxCell>
        <mxCell id="8hipFg5tHZ6pabTX7cXC-27" value="" style="endArrow=classic;html=1;rounded=0;exitX=0.5;exitY=1;exitDx=0;exitDy=0;entryX=0.5;entryY=0;entryDx=0;entryDy=0;" edge="1" parent="1" source="8hipFg5tHZ6pabTX7cXC-10" target="8hipFg5tHZ6pabTX7cXC-12">
          <mxGeometry width="50" height="50" relative="1" as="geometry">
            <mxPoint x="590" y="500" as="sourcePoint" />
            <mxPoint x="640" y="450" as="targetPoint" />
          </mxGeometry>
        </mxCell>
        <mxCell id="8hipFg5tHZ6pabTX7cXC-28" value="" style="endArrow=classic;html=1;rounded=0;exitX=1;exitY=1;exitDx=0;exitDy=0;entryX=0;entryY=0;entryDx=0;entryDy=0;" edge="1" parent="1" source="8hipFg5tHZ6pabTX7cXC-10" target="8hipFg5tHZ6pabTX7cXC-13">
          <mxGeometry width="50" height="50" relative="1" as="geometry">
            <mxPoint x="760" y="490" as="sourcePoint" />
            <mxPoint x="810" y="440" as="targetPoint" />
          </mxGeometry>
        </mxCell>
        <mxCell id="8hipFg5tHZ6pabTX7cXC-29" value="Функциональная корректность" style="rounded=0;whiteSpace=wrap;html=1;" vertex="1" parent="1">
          <mxGeometry x="250" y="240" width="230" height="60" as="geometry" />
        </mxCell>
        <mxCell id="8hipFg5tHZ6pabTX7cXC-30" value="" style="endArrow=classic;html=1;rounded=0;exitX=0;exitY=0.5;exitDx=0;exitDy=0;entryX=0.697;entryY=0.078;entryDx=0;entryDy=0;entryPerimeter=0;" edge="1" parent="1" source="8hipFg5tHZ6pabTX7cXC-2" target="8hipFg5tHZ6pabTX7cXC-3">
          <mxGeometry width="50" height="50" relative="1" as="geometry">
            <mxPoint x="120" y="310" as="sourcePoint" />
            <mxPoint x="170" y="260" as="targetPoint" />
          </mxGeometry>
        </mxCell>
        <mxCell id="8hipFg5tHZ6pabTX7cXC-31" value="" style="endArrow=classic;html=1;rounded=0;exitX=0.5;exitY=1;exitDx=0;exitDy=0;entryX=0.558;entryY=0.033;entryDx=0;entryDy=0;entryPerimeter=0;" edge="1" parent="1" source="8hipFg5tHZ6pabTX7cXC-2" target="8hipFg5tHZ6pabTX7cXC-5">
          <mxGeometry width="50" height="50" relative="1" as="geometry">
            <mxPoint x="120" y="310" as="sourcePoint" />
            <mxPoint x="170" y="260" as="targetPoint" />
          </mxGeometry>
        </mxCell>
        <mxCell id="8hipFg5tHZ6pabTX7cXC-32" value="" style="endArrow=classic;html=1;rounded=0;exitX=1;exitY=0.75;exitDx=0;exitDy=0;entryX=0.25;entryY=0;entryDx=0;entryDy=0;" edge="1" parent="1" source="8hipFg5tHZ6pabTX7cXC-2" target="8hipFg5tHZ6pabTX7cXC-29">
          <mxGeometry width="50" height="50" relative="1" as="geometry">
            <mxPoint x="120" y="310" as="sourcePoint" />
            <mxPoint x="170" y="260" as="targetPoint" />
          </mxGeometry>
        </mxCell>
        <mxCell id="8hipFg5tHZ6pabTX7cXC-33" value="" style="endArrow=classic;html=1;rounded=0;exitX=0.5;exitY=1;exitDx=0;exitDy=0;entryX=0.5;entryY=0;entryDx=0;entryDy=0;" edge="1" parent="1" source="8hipFg5tHZ6pabTX7cXC-4" target="8hipFg5tHZ6pabTX7cXC-7">
          <mxGeometry width="50" height="50" relative="1" as="geometry">
            <mxPoint x="520" y="300" as="sourcePoint" />
            <mxPoint x="570" y="250" as="targetPoint" />
          </mxGeometry>
        </mxCell>
        <mxCell id="8hipFg5tHZ6pabTX7cXC-34" value="" style="endArrow=classic;html=1;rounded=0;exitX=0.5;exitY=1;exitDx=0;exitDy=0;entryX=0.5;entryY=0;entryDx=0;entryDy=0;" edge="1" parent="1" source="8hipFg5tHZ6pabTX7cXC-6" target="8hipFg5tHZ6pabTX7cXC-9">
          <mxGeometry width="50" height="50" relative="1" as="geometry">
            <mxPoint x="700" y="290" as="sourcePoint" />
            <mxPoint x="750" y="240" as="targetPoint" />
          </mxGeometry>
        </mxCell>
        <mxCell id="8hipFg5tHZ6pabTX7cXC-35" value="" style="endArrow=classic;html=1;rounded=0;exitX=0.75;exitY=1;exitDx=0;exitDy=0;entryX=0.172;entryY=-0.033;entryDx=0;entryDy=0;entryPerimeter=0;" edge="1" parent="1" source="8hipFg5tHZ6pabTX7cXC-29" target="8hipFg5tHZ6pabTX7cXC-10">
          <mxGeometry width="50" height="50" relative="1" as="geometry">
            <mxPoint x="580" y="320" as="sourcePoint" />
            <mxPoint x="630" y="270" as="targetPoint" />
          </mxGeometry>
        </mxCell>
        <mxCell id="8hipFg5tHZ6pabTX7cXC-36" value="" style="endArrow=classic;html=1;rounded=0;exitX=0.75;exitY=1;exitDx=0;exitDy=0;entryX=0;entryY=0.5;entryDx=0;entryDy=0;" edge="1" parent="1" source="8hipFg5tHZ6pabTX7cXC-5" target="8hipFg5tHZ6pabTX7cXC-10">
          <mxGeometry width="50" height="50" relative="1" as="geometry">
            <mxPoint x="400" y="320" as="sourcePoint" />
            <mxPoint x="450" y="270" as="targetPoint" />
          </mxGeometry>
        </mxCell>
        <mxCell id="8hipFg5tHZ6pabTX7cXC-37" value="" style="endArrow=classic;html=1;rounded=0;exitX=0;exitY=0.75;exitDx=0;exitDy=0;entryX=1;entryY=0.25;entryDx=0;entryDy=0;" edge="1" parent="1" source="8hipFg5tHZ6pabTX7cXC-9" target="8hipFg5tHZ6pabTX7cXC-10">
          <mxGeometry width="50" height="50" relative="1" as="geometry">
            <mxPoint x="750" y="300" as="sourcePoint" />
            <mxPoint x="800" y="250" as="targetPoint" />
          </mxGeometry>
        </mxCell>
      </root>
    </mxGraphModel>
  </diagram>
</mxfile>
